  0
SECTION
  2
HEADER
  9
$ACADVER
  1
AC1009
  9
$FILLMODE
 70
 0
  9
$SPLFRAME
 70
 1
  9
$EXTMIN
 10
0
 20
0
 30
0.0
  9
$EXTMAX
 10
1058.33
 20
1058.33
 30
0.0
  0
ENDSEC
  0
SECTION
  2
TABLES
  0
TABLE
  2
LAYER
 70
1
  0
LAYER
  2
0
 70
     0
 62
     7
  6
CONTINUOUS
  0
ENDTAB
  0
ENDSEC
  0
SECTION
  2
ENTITIES
  0
LINE
  8
0
 62
     0
 10
74.2968
 20
95.5075
 30
0.0
 11
74.4527
 21
95.5008
 31
0.0
  0
LINE
  8
0
 62
     0
 10
74.4527
 20
95.5008
 30
0.0
 11
74.6083
 21
95.4828
 31
0.0
  0
LINE
  8
0
 62
     0
 10
74.6083
 20
95.4828
 30
0.0
 11
74.7628
 21
95.4525
 31
0.0
  0
LINE
  8
0
 62
     0
 10
74.7628
 20
95.4525
 30
0.0
 11
74.9141
 21
95.4098
 31
0.0
  0
LINE
  8
0
 62
     0
 10
74.9141
 20
95.4098
 30
0.0
 11
75.0616
 21
95.3548
 31
0.0
  0
LINE
  8
0
 62
     0
 10
75.0616
 20
95.3548
 30
0.0
 11
75.2038
 21
95.2899
 31
0.0
  0
LINE
  8
0
 62
     0
 10
75.2038
 20
95.2899
 30
0.0
 11
75.3403
 21
95.213
 31
0.0
  0
LINE
  8
0
 62
     0
 10
75.3403
 20
95.213
 30
0.0
 11
75.4712
 21
95.1258
 31
0.0
  0
LINE
  8
0
 62
     0
 10
75.4712
 20
95.1258
 30
0.0
 11
75.595
 21
95.0281
 31
0.0
  0
LINE
  8
0
 62
     0
 10
75.595
 20
95.0281
 30
0.0
 11
75.7107
 21
94.9219
 31
0.0
  0
LINE
  8
0
 62
     0
 10
75.7107
 20
94.9219
 30
0.0
 11
75.8169
 21
94.8062
 31
0.0
  0
LINE
  8
0
 62
     0
 10
75.8169
 20
94.8062
 30
0.0
 11
75.9146
 21
94.6838
 31
0.0
  0
LINE
  8
0
 62
     0
 10
75.9146
 20
94.6838
 30
0.0
 11
76.0017
 21
94.5526
 31
0.0
  0
LINE
  8
0
 62
     0
 10
76.0017
 20
94.5526
 30
0.0
 11
76.0786
 21
94.415
 31
0.0
  0
LINE
  8
0
 62
     0
 10
76.0786
 20
94.415
 30
0.0
 11
76.1436
 21
94.2728
 31
0.0
  0
LINE
  8
0
 62
     0
 10
76.1436
 20
94.2728
 30
0.0
 11
76.1986
 21
94.1268
 31
0.0
  0
LINE
  8
0
 62
     0
 10
76.1986
 20
94.1268
 30
0.0
 11
76.2399
 21
93.974
 31
0.0
  0
LINE
  8
0
 62
     0
 10
76.2399
 20
93.974
 30
0.0
 11
76.2716
 21
93.8209
 31
0.0
  0
LINE
  8
0
 62
     0
 10
76.2716
 20
93.8209
 30
0.0
 11
76.2896
 21
93.6639
 31
0.0
  0
LINE
  8
0
 62
     0
 10
76.2896
 20
93.6639
 30
0.0
 11
76.2953
 21
93.5069
 31
0.0
  0
LINE
  8
0
 62
     0
 10
76.2953
 20
93.5069
 30
0.0
 11
76.2963
 21
2.25585
 31
0.0
  0
LINE
  8
0
 62
     0
 10
76.2963
 20
2.25585
 30
0.0
 11
76.2896
 21
2.10013
 31
0.0
  0
LINE
  8
0
 62
     0
 10
76.2896
 20
2.10013
 30
0.0
 11
76.2716
 21
1.94441
 31
0.0
  0
LINE
  8
0
 62
     0
 10
76.2716
 20
1.94441
 30
0.0
 11
76.2399
 21
1.79007
 31
0.0
  0
LINE
  8
0
 62
     0
 10
76.2399
 20
1.79007
 30
0.0
 11
76.1986
 21
1.63849
 31
0.0
  0
LINE
  8
0
 62
     0
 10
76.1986
 20
1.63849
 30
0.0
 11
76.1436
 21
1.49104
 31
0.0
  0
LINE
  8
0
 62
     0
 10
76.1436
 20
1.49104
 30
0.0
 11
76.0786
 21
1.3491
 31
0.0
  0
LINE
  8
0
 62
     0
 10
76.0786
 20
1.3491
 30
0.0
 11
76.0017
 21
1.21267
 31
0.0
  0
LINE
  8
0
 62
     0
 10
76.0017
 20
1.21267
 30
0.0
 11
75.9146
 21
1.08176
 31
0.0
  0
LINE
  8
0
 62
     0
 10
75.9146
 20
1.08176
 30
0.0
 11
75.8169
 21
0.957735
 31
0.0
  0
LINE
  8
0
 62
     0
 10
75.8169
 20
0.957735
 30
0.0
 11
75.7107
 21
0.841982
 31
0.0
  0
LINE
  8
0
 62
     0
 10
75.7107
 20
0.841982
 30
0.0
 11
75.595
 21
0.735873
 31
0.0
  0
LINE
  8
0
 62
     0
 10
75.595
 20
0.735873
 30
0.0
 11
75.4712
 21
0.63803
 31
0.0
  0
LINE
  8
0
 62
     0
 10
75.4712
 20
0.63803
 30
0.0
 11
75.3403
 21
0.551215
 31
0.0
  0
LINE
  8
0
 62
     0
 10
75.3403
 20
0.551215
 30
0.0
 11
75.2038
 21
0.474045
 31
0.0
  0
LINE
  8
0
 62
     0
 10
75.2038
 20
0.474045
 30
0.0
 11
75.0616
 21
0.409279
 31
0.0
  0
LINE
  8
0
 62
     0
 10
75.0616
 20
0.409279
 30
0.0
 11
74.9141
 21
0.354157
 31
0.0
  0
LINE
  8
0
 62
     0
 10
74.9141
 20
0.354157
 30
0.0
 11
74.7628
 21
0.312815
 31
0.0
  0
LINE
  8
0
 62
     0
 10
74.7628
 20
0.312815
 30
0.0
 11
74.6083
 21
0.28112
 31
0.0
  0
LINE
  8
0
 62
     0
 10
74.6083
 20
0.28112
 30
0.0
 11
74.4527
 21
0.263205
 31
0.0
  0
LINE
  8
0
 62
     0
 10
74.4527
 20
0.263205
 30
0.0
 11
74.2968
 21
0.257693
 31
0.0
  0
LINE
  8
0
 62
     0
 10
74.2968
 20
0.257693
 30
0.0
 11
2.096
 21
0.256315
 31
0.0
  0
LINE
  8
0
 62
     0
 10
2.096
 20
0.256315
 30
0.0
 11
1.9389
 21
0.263205
 31
0.0
  0
LINE
  8
0
 62
     0
 10
1.9389
 20
0.263205
 30
0.0
 11
1.7818
 21
0.28112
 31
0.0
  0
LINE
  8
0
 62
     0
 10
1.7818
 20
0.28112
 30
0.0
 11
1.62884
 21
0.312815
 31
0.0
  0
LINE
  8
0
 62
     0
 10
1.62884
 20
0.312815
 30
0.0
 11
1.47588
 21
0.354157
 31
0.0
  0
LINE
  8
0
 62
     0
 10
1.47588
 20
0.354157
 30
0.0
 11
1.32981
 21
0.409279
 31
0.0
  0
LINE
  8
0
 62
     0
 10
1.32981
 20
0.409279
 30
0.0
 11
1.18787
 21
0.474045
 31
0.0
  0
LINE
  8
0
 62
     0
 10
1.18787
 20
0.474045
 30
0.0
 11
1.05006
 21
0.551215
 31
0.0
  0
LINE
  8
0
 62
     0
 10
1.05006
 20
0.551215
 30
0.0
 11
0.919152
 21
0.63803
 31
0.0
  0
LINE
  8
0
 62
     0
 10
0.919152
 20
0.63803
 30
0.0
 11
0.796505
 21
0.735873
 31
0.0
  0
LINE
  8
0
 62
     0
 10
0.796505
 20
0.735873
 30
0.0
 11
0.680752
 21
0.841982
 31
0.0
  0
LINE
  8
0
 62
     0
 10
0.680752
 20
0.841982
 30
0.0
 11
0.574643
 21
0.957735
 31
0.0
  0
LINE
  8
0
 62
     0
 10
0.574643
 20
0.957735
 30
0.0
 11
0.4768
 21
1.08176
 31
0.0
  0
LINE
  8
0
 62
     0
 10
0.4768
 20
1.08176
 30
0.0
 11
0.389985
 21
1.21267
 31
0.0
  0
LINE
  8
0
 62
     0
 10
0.389985
 20
1.21267
 30
0.0
 11
0.312815
 21
1.3491
 31
0.0
  0
LINE
  8
0
 62
     0
 10
0.312815
 20
1.3491
 30
0.0
 11
0.248047
 21
1.49104
 31
0.0
  0
LINE
  8
0
 62
     0
 10
0.248047
 20
1.49104
 30
0.0
 11
0.192925
 21
1.63849
 31
0.0
  0
LINE
  8
0
 62
     0
 10
0.192925
 20
1.63849
 30
0.0
 11
0.150206
 21
1.79007
 31
0.0
  0
LINE
  8
0
 62
     0
 10
0.150206
 20
1.79007
 30
0.0
 11
0.119889
 21
1.94441
 31
0.0
  0
LINE
  8
0
 62
     0
 10
0.119889
 20
1.94441
 30
0.0
 11
0.101975
 21
2.10013
 31
0.0
  0
LINE
  8
0
 62
     0
 10
0.101975
 20
2.10013
 30
0.0
 11
0.0950846
 21
2.25585
 31
0.0
  0
LINE
  8
0
 62
     0
 10
0.0950846
 20
2.25585
 30
0.0
 11
0.0950846
 21
93.5069
 31
0.0
  0
LINE
  8
0
 62
     0
 10
0.0950846
 20
93.5069
 30
0.0
 11
0.101975
 21
93.6639
 31
0.0
  0
LINE
  8
0
 62
     0
 10
0.101975
 20
93.6639
 30
0.0
 11
0.119889
 21
93.8209
 31
0.0
  0
LINE
  8
0
 62
     0
 10
0.119889
 20
93.8209
 30
0.0
 11
0.150206
 21
93.974
 31
0.0
  0
LINE
  8
0
 62
     0
 10
0.150206
 20
93.974
 30
0.0
 11
0.192925
 21
94.1268
 31
0.0
  0
LINE
  8
0
 62
     0
 10
0.192925
 20
94.1268
 30
0.0
 11
0.248047
 21
94.2728
 31
0.0
  0
LINE
  8
0
 62
     0
 10
0.248047
 20
94.2728
 30
0.0
 11
0.312815
 21
94.415
 31
0.0
  0
LINE
  8
0
 62
     0
 10
0.312815
 20
94.415
 30
0.0
 11
0.389985
 21
94.5526
 31
0.0
  0
LINE
  8
0
 62
     0
 10
0.389985
 20
94.5526
 30
0.0
 11
0.4768
 21
94.6838
 31
0.0
  0
LINE
  8
0
 62
     0
 10
0.4768
 20
94.6838
 30
0.0
 11
0.574643
 21
94.8062
 31
0.0
  0
LINE
  8
0
 62
     0
 10
0.574643
 20
94.8062
 30
0.0
 11
0.680752
 21
94.9219
 31
0.0
  0
LINE
  8
0
 62
     0
 10
0.680752
 20
94.9219
 30
0.0
 11
0.796505
 21
95.0281
 31
0.0
  0
LINE
  8
0
 62
     0
 10
0.796505
 20
95.0281
 30
0.0
 11
0.919152
 21
95.1258
 31
0.0
  0
LINE
  8
0
 62
     0
 10
0.919152
 20
95.1258
 30
0.0
 11
1.05006
 21
95.213
 31
0.0
  0
LINE
  8
0
 62
     0
 10
1.05006
 20
95.213
 30
0.0
 11
1.18787
 21
95.2899
 31
0.0
  0
LINE
  8
0
 62
     0
 10
1.18787
 20
95.2899
 30
0.0
 11
1.32981
 21
95.3548
 31
0.0
  0
LINE
  8
0
 62
     0
 10
1.32981
 20
95.3548
 30
0.0
 11
1.47588
 21
95.4098
 31
0.0
  0
LINE
  8
0
 62
     0
 10
1.47588
 20
95.4098
 30
0.0
 11
1.62884
 21
95.4525
 31
0.0
  0
LINE
  8
0
 62
     0
 10
1.62884
 20
95.4525
 30
0.0
 11
1.7818
 21
95.4828
 31
0.0
  0
LINE
  8
0
 62
     0
 10
1.7818
 20
95.4828
 30
0.0
 11
1.9389
 21
95.5008
 31
0.0
  0
LINE
  8
0
 62
     0
 10
1.9389
 20
95.5008
 30
0.0
 11
2.096
 21
95.5075
 31
0.0
  0
LINE
  8
0
 62
     0
 10
2.096
 20
95.5075
 30
0.0
 11
74.2968
 21
95.5075
 31
0.0
  0
LINE
  8
0
 62
     0
 10
12.146
 20
16.7817
 30
0.0
 11
12.146
 21
12.0826
 31
0.0
  0
LINE
  8
0
 62
     0
 10
12.146
 20
12.0826
 30
0.0
 11
10.6206
 21
12.0826
 31
0.0
  0
LINE
  8
0
 62
     0
 10
10.6206
 20
12.0826
 30
0.0
 11
10.6206
 21
15.3128
 31
0.0
  0
LINE
  8
0
 62
     0
 10
10.6206
 20
15.3128
 30
0.0
 11
3.87092
 21
15.3128
 31
0.0
  0
LINE
  8
0
 62
     0
 10
3.87092
 20
15.3128
 30
0.0
 11
3.87092
 21
12.0826
 31
0.0
  0
LINE
  8
0
 62
     0
 10
3.87092
 20
12.0826
 30
0.0
 11
3.04409
 21
12.0826
 31
0.0
  0
LINE
  8
0
 62
     0
 10
3.04409
 20
12.0826
 30
0.0
 11
3.04409
 21
9.28247
 31
0.0
  0
LINE
  8
0
 62
     0
 10
3.04409
 20
9.28247
 30
0.0
 11
3.87092
 21
9.28247
 31
0.0
  0
LINE
  8
0
 62
     0
 10
3.87092
 20
9.28247
 30
0.0
 11
3.87092
 21
3.01239
 31
0.0
  0
LINE
  8
0
 62
     0
 10
3.87092
 20
3.01239
 30
0.0
 11
5.59484
 21
3.01239
 31
0.0
  0
LINE
  8
0
 62
     0
 10
5.59484
 20
3.01239
 30
0.0
 11
5.59484
 21
1.81212
 31
0.0
  0
LINE
  8
0
 62
     0
 10
5.59484
 20
1.81212
 30
0.0
 11
8.89522
 21
1.81212
 31
0.0
  0
LINE
  8
0
 62
     0
 10
8.89522
 20
1.81212
 30
0.0
 11
8.89522
 21
3.01239
 31
0.0
  0
LINE
  8
0
 62
     0
 10
8.89522
 20
3.01239
 30
0.0
 11
10.6206
 21
3.01239
 31
0.0
  0
LINE
  8
0
 62
     0
 10
10.6206
 20
3.01239
 30
0.0
 11
10.6206
 21
7.48273
 31
0.0
  0
LINE
  8
0
 62
     0
 10
10.6206
 20
7.48273
 30
0.0
 11
12.146
 21
7.48273
 31
0.0
  0
LINE
  8
0
 62
     0
 10
12.146
 20
7.48273
 30
0.0
 11
12.146
 21
2.78226
 31
0.0
  0
LINE
  8
0
 62
     0
 10
12.146
 20
2.78226
 30
0.0
 11
26.1455
 21
2.78226
 31
0.0
  0
LINE
  8
0
 62
     0
 10
26.1455
 20
2.78226
 30
0.0
 11
26.1455
 21
7.48273
 31
0.0
  0
LINE
  8
0
 62
     0
 10
26.1455
 20
7.48273
 30
0.0
 11
27.671
 21
7.48273
 31
0.0
  0
LINE
  8
0
 62
     0
 10
27.671
 20
7.48273
 30
0.0
 11
27.671
 21
3.01239
 31
0.0
  0
LINE
  8
0
 62
     0
 10
27.671
 20
3.01239
 30
0.0
 11
29.3949
 21
3.01239
 31
0.0
  0
LINE
  8
0
 62
     0
 10
29.3949
 20
3.01239
 30
0.0
 11
29.3949
 21
1.81212
 31
0.0
  0
LINE
  8
0
 62
     0
 10
29.3949
 20
1.81212
 30
0.0
 11
32.6953
 21
1.81212
 31
0.0
  0
LINE
  8
0
 62
     0
 10
32.6953
 20
1.81212
 30
0.0
 11
32.6953
 21
3.01239
 31
0.0
  0
LINE
  8
0
 62
     0
 10
32.6953
 20
3.01239
 30
0.0
 11
34.4206
 21
3.01239
 31
0.0
  0
LINE
  8
0
 62
     0
 10
34.4206
 20
3.01239
 30
0.0
 11
34.4206
 21
9.28247
 31
0.0
  0
LINE
  8
0
 62
     0
 10
34.4206
 20
9.28247
 30
0.0
 11
35.2461
 21
9.28247
 31
0.0
  0
LINE
  8
0
 62
     0
 10
35.2461
 20
9.28247
 30
0.0
 11
35.2461
 21
12.0826
 31
0.0
  0
LINE
  8
0
 62
     0
 10
35.2461
 20
12.0826
 30
0.0
 11
34.4206
 21
12.0826
 31
0.0
  0
LINE
  8
0
 62
     0
 10
34.4206
 20
12.0826
 30
0.0
 11
34.4206
 21
15.3128
 31
0.0
  0
LINE
  8
0
 62
     0
 10
34.4206
 20
15.3128
 30
0.0
 11
27.671
 21
15.3128
 31
0.0
  0
LINE
  8
0
 62
     0
 10
27.671
 20
15.3128
 30
0.0
 11
27.671
 21
12.0826
 31
0.0
  0
LINE
  8
0
 62
     0
 10
27.671
 20
12.0826
 30
0.0
 11
26.1455
 21
12.0826
 31
0.0
  0
LINE
  8
0
 62
     0
 10
26.1455
 20
12.0826
 30
0.0
 11
26.1455
 21
16.7817
 31
0.0
  0
LINE
  8
0
 62
     0
 10
26.1455
 20
16.7817
 30
0.0
 11
12.146
 21
16.7817
 31
0.0
  0
LINE
  8
0
 62
     0
 10
40.7211
 20
16.7817
 30
0.0
 11
54.7204
 21
16.7817
 31
0.0
  0
LINE
  8
0
 62
     0
 10
54.7204
 20
16.7817
 30
0.0
 11
54.7204
 21
2.78226
 31
0.0
  0
LINE
  8
0
 62
     0
 10
54.7204
 20
2.78226
 30
0.0
 11
40.7211
 21
2.78226
 31
0.0
  0
LINE
  8
0
 62
     0
 10
40.7211
 20
2.78226
 30
0.0
 11
40.7211
 21
16.7817
 31
0.0
  0
LINE
  8
0
 62
     0
 10
66.27
 20
35.4087
 30
0.0
 11
66.27
 21
34.5819
 31
0.0
  0
LINE
  8
0
 62
     0
 10
66.27
 20
34.5819
 30
0.0
 11
60.0012
 21
34.5819
 31
0.0
  0
LINE
  8
0
 62
     0
 10
60.0012
 20
34.5819
 30
0.0
 11
60.0012
 21
32.8579
 31
0.0
  0
LINE
  8
0
 62
     0
 10
60.0012
 20
32.8579
 30
0.0
 11
58.801
 21
32.8579
 31
0.0
  0
LINE
  8
0
 62
     0
 10
58.801
 20
32.8579
 30
0.0
 11
58.801
 21
29.5576
 31
0.0
  0
LINE
  8
0
 62
     0
 10
58.801
 20
29.5576
 30
0.0
 11
60.0012
 21
29.5576
 31
0.0
  0
LINE
  8
0
 62
     0
 10
60.0012
 20
29.5576
 30
0.0
 11
60.0012
 21
27.8322
 31
0.0
  0
LINE
  8
0
 62
     0
 10
60.0012
 20
27.8322
 30
0.0
 11
64.4701
 21
27.8322
 31
0.0
  0
LINE
  8
0
 62
     0
 10
64.4701
 20
27.8322
 30
0.0
 11
64.4701
 21
26.3067
 31
0.0
  0
LINE
  8
0
 62
     0
 10
64.4701
 20
26.3067
 30
0.0
 11
59.7711
 21
26.3067
 31
0.0
  0
LINE
  8
0
 62
     0
 10
59.7711
 20
26.3067
 30
0.0
 11
59.7711
 21
12.3073
 31
0.0
  0
LINE
  8
0
 62
     0
 10
59.7711
 20
12.3073
 30
0.0
 11
64.4701
 21
12.3073
 31
0.0
  0
LINE
  8
0
 62
     0
 10
64.4701
 20
12.3073
 30
0.0
 11
64.4701
 21
10.7818
 31
0.0
  0
LINE
  8
0
 62
     0
 10
64.4701
 20
10.7818
 30
0.0
 11
60.0012
 21
10.7818
 31
0.0
  0
LINE
  8
0
 62
     0
 10
60.0012
 20
10.7818
 30
0.0
 11
60.0012
 21
9.05785
 31
0.0
  0
LINE
  8
0
 62
     0
 10
60.0012
 20
9.05785
 30
0.0
 11
58.801
 21
9.05785
 31
0.0
  0
LINE
  8
0
 62
     0
 10
58.801
 20
9.05785
 30
0.0
 11
58.801
 21
5.75744
 31
0.0
  0
LINE
  8
0
 62
     0
 10
58.801
 20
5.75744
 30
0.0
 11
60.0012
 21
5.75744
 31
0.0
  0
LINE
  8
0
 62
     0
 10
60.0012
 20
5.75744
 30
0.0
 11
60.0012
 21
4.03214
 31
0.0
  0
LINE
  8
0
 62
     0
 10
60.0012
 20
4.03214
 30
0.0
 11
66.27
 21
4.03214
 31
0.0
  0
LINE
  8
0
 62
     0
 10
66.27
 20
4.03214
 30
0.0
 11
66.27
 21
3.20669
 31
0.0
  0
LINE
  8
0
 62
     0
 10
66.27
 20
3.20669
 30
0.0
 11
69.07
 21
3.20669
 31
0.0
  0
LINE
  8
0
 62
     0
 10
69.07
 20
3.20669
 30
0.0
 11
69.07
 21
4.03214
 31
0.0
  0
LINE
  8
0
 62
     0
 10
69.07
 20
4.03214
 30
0.0
 11
72.3
 21
4.03214
 31
0.0
  0
LINE
  8
0
 62
     0
 10
72.3
 20
4.03214
 30
0.0
 11
72.3
 21
10.7818
 31
0.0
  0
LINE
  8
0
 62
     0
 10
72.3
 20
10.7818
 30
0.0
 11
69.07
 21
10.7818
 31
0.0
  0
LINE
  8
0
 62
     0
 10
69.07
 20
10.7818
 30
0.0
 11
69.07
 21
12.3073
 31
0.0
  0
LINE
  8
0
 62
     0
 10
69.07
 20
12.3073
 30
0.0
 11
73.7704
 21
12.3073
 31
0.0
  0
LINE
  8
0
 62
     0
 10
73.7704
 20
12.3073
 30
0.0
 11
73.7704
 21
26.3067
 31
0.0
  0
LINE
  8
0
 62
     0
 10
73.7704
 20
26.3067
 30
0.0
 11
69.07
 21
26.3067
 31
0.0
  0
LINE
  8
0
 62
     0
 10
69.07
 20
26.3067
 30
0.0
 11
69.07
 21
27.8322
 31
0.0
  0
LINE
  8
0
 62
     0
 10
69.07
 20
27.8322
 30
0.0
 11
72.3
 21
27.8322
 31
0.0
  0
LINE
  8
0
 62
     0
 10
72.3
 20
27.8322
 30
0.0
 11
72.3
 21
34.5819
 31
0.0
  0
LINE
  8
0
 62
     0
 10
72.3
 20
34.5819
 30
0.0
 11
69.07
 21
34.5819
 31
0.0
  0
LINE
  8
0
 62
     0
 10
69.07
 20
34.5819
 30
0.0
 11
69.07
 21
35.4087
 31
0.0
  0
LINE
  8
0
 62
     0
 10
69.07
 20
35.4087
 30
0.0
 11
66.27
 21
35.4087
 31
0.0
  0
LINE
  8
0
 62
     0
 10
2.62103
 20
35.8316
 30
0.0
 11
16.6205
 21
35.8316
 31
0.0
  0
LINE
  8
0
 62
     0
 10
16.6205
 20
35.8316
 30
0.0
 11
16.6205
 21
21.8323
 31
0.0
  0
LINE
  8
0
 62
     0
 10
16.6205
 20
21.8323
 30
0.0
 11
2.62103
 21
21.8323
 31
0.0
  0
LINE
  8
0
 62
     0
 10
2.62103
 20
21.8323
 30
0.0
 11
2.62103
 21
35.8316
 31
0.0
  0
LINE
  8
0
 62
     0
 10
21.671
 20
35.8316
 30
0.0
 11
35.6704
 21
35.8316
 31
0.0
  0
LINE
  8
0
 62
     0
 10
35.6704
 20
35.8316
 30
0.0
 11
35.6704
 21
21.8323
 31
0.0
  0
LINE
  8
0
 62
     0
 10
35.6704
 20
21.8323
 30
0.0
 11
21.671
 21
21.8323
 31
0.0
  0
LINE
  8
0
 62
     0
 10
21.671
 20
21.8323
 30
0.0
 11
21.671
 21
35.8316
 31
0.0
  0
LINE
  8
0
 62
     0
 10
40.7211
 20
35.8316
 30
0.0
 11
54.7204
 21
35.8316
 31
0.0
  0
LINE
  8
0
 62
     0
 10
54.7204
 20
35.8316
 30
0.0
 11
54.7204
 21
21.8323
 31
0.0
  0
LINE
  8
0
 62
     0
 10
54.7204
 20
21.8323
 30
0.0
 11
40.7211
 21
21.8323
 31
0.0
  0
LINE
  8
0
 62
     0
 10
40.7211
 20
21.8323
 30
0.0
 11
40.7211
 21
35.8316
 31
0.0
  0
LINE
  8
0
 62
     0
 10
2.62103
 20
54.8816
 30
0.0
 11
16.6205
 21
54.8816
 31
0.0
  0
LINE
  8
0
 62
     0
 10
16.6205
 20
54.8816
 30
0.0
 11
16.6205
 21
40.8824
 31
0.0
  0
LINE
  8
0
 62
     0
 10
16.6205
 20
40.8824
 30
0.0
 11
2.62103
 21
40.8824
 31
0.0
  0
LINE
  8
0
 62
     0
 10
2.62103
 20
40.8824
 30
0.0
 11
2.62103
 21
54.8816
 31
0.0
  0
LINE
  8
0
 62
     0
 10
21.671
 20
54.8816
 30
0.0
 11
35.6704
 21
54.8816
 31
0.0
  0
LINE
  8
0
 62
     0
 10
35.6704
 20
54.8816
 30
0.0
 11
35.6704
 21
40.8824
 31
0.0
  0
LINE
  8
0
 62
     0
 10
35.6704
 20
40.8824
 30
0.0
 11
21.671
 21
40.8824
 31
0.0
  0
LINE
  8
0
 62
     0
 10
21.671
 20
40.8824
 30
0.0
 11
21.671
 21
54.8816
 31
0.0
  0
LINE
  8
0
 62
     0
 10
40.7211
 20
54.8816
 30
0.0
 11
54.7204
 21
54.8816
 31
0.0
  0
LINE
  8
0
 62
     0
 10
54.7204
 20
54.8816
 30
0.0
 11
54.7204
 21
40.8824
 31
0.0
  0
LINE
  8
0
 62
     0
 10
54.7204
 20
40.8824
 30
0.0
 11
40.7211
 21
40.8824
 31
0.0
  0
LINE
  8
0
 62
     0
 10
40.7211
 20
40.8824
 30
0.0
 11
40.7211
 21
54.8816
 31
0.0
  0
LINE
  8
0
 62
     0
 10
66.27
 20
73.5072
 30
0.0
 11
66.27
 21
72.6817
 31
0.0
  0
LINE
  8
0
 62
     0
 10
66.27
 20
72.6817
 30
0.0
 11
60.0012
 21
72.6817
 31
0.0
  0
LINE
  8
0
 62
     0
 10
60.0012
 20
72.6817
 30
0.0
 11
60.0012
 21
70.9581
 31
0.0
  0
LINE
  8
0
 62
     0
 10
60.0012
 20
70.9581
 30
0.0
 11
58.801
 21
70.9581
 31
0.0
  0
LINE
  8
0
 62
     0
 10
58.801
 20
70.9581
 30
0.0
 11
58.801
 21
67.6575
 31
0.0
  0
LINE
  8
0
 62
     0
 10
58.801
 20
67.6575
 30
0.0
 11
60.0012
 21
67.6575
 31
0.0
  0
LINE
  8
0
 62
     0
 10
60.0012
 20
67.6575
 30
0.0
 11
60.0012
 21
65.9324
 31
0.0
  0
LINE
  8
0
 62
     0
 10
60.0012
 20
65.9324
 30
0.0
 11
64.4701
 21
65.9324
 31
0.0
  0
LINE
  8
0
 62
     0
 10
64.4701
 20
65.9324
 30
0.0
 11
64.4701
 21
64.4066
 31
0.0
  0
LINE
  8
0
 62
     0
 10
64.4701
 20
64.4066
 30
0.0
 11
59.7711
 21
64.4066
 31
0.0
  0
LINE
  8
0
 62
     0
 10
59.7711
 20
64.4066
 30
0.0
 11
59.7711
 21
50.4074
 31
0.0
  0
LINE
  8
0
 62
     0
 10
59.7711
 20
50.4074
 30
0.0
 11
64.4701
 21
50.4074
 31
0.0
  0
LINE
  8
0
 62
     0
 10
64.4701
 20
50.4074
 30
0.0
 11
64.4701
 21
48.8819
 31
0.0
  0
LINE
  8
0
 62
     0
 10
64.4701
 20
48.8819
 30
0.0
 11
60.0012
 21
48.8819
 31
0.0
  0
LINE
  8
0
 62
     0
 10
60.0012
 20
48.8819
 30
0.0
 11
60.0012
 21
47.1579
 31
0.0
  0
LINE
  8
0
 62
     0
 10
60.0012
 20
47.1579
 30
0.0
 11
58.801
 21
47.1579
 31
0.0
  0
LINE
  8
0
 62
     0
 10
58.801
 20
47.1579
 30
0.0
 11
58.801
 21
43.8573
 31
0.0
  0
LINE
  8
0
 62
     0
 10
58.801
 20
43.8573
 30
0.0
 11
60.0012
 21
43.8573
 31
0.0
  0
LINE
  8
0
 62
     0
 10
60.0012
 20
43.8573
 30
0.0
 11
60.0012
 21
42.1323
 31
0.0
  0
LINE
  8
0
 62
     0
 10
60.0012
 20
42.1323
 30
0.0
 11
66.27
 21
42.1323
 31
0.0
  0
LINE
  8
0
 62
     0
 10
66.27
 20
42.1323
 30
0.0
 11
66.27
 21
41.3067
 31
0.0
  0
LINE
  8
0
 62
     0
 10
66.27
 20
41.3067
 30
0.0
 11
69.07
 21
41.3067
 31
0.0
  0
LINE
  8
0
 62
     0
 10
69.07
 20
41.3067
 30
0.0
 11
69.07
 21
42.1323
 31
0.0
  0
LINE
  8
0
 62
     0
 10
69.07
 20
42.1323
 30
0.0
 11
72.3
 21
42.1323
 31
0.0
  0
LINE
  8
0
 62
     0
 10
72.3
 20
42.1323
 30
0.0
 11
72.3
 21
48.8819
 31
0.0
  0
LINE
  8
0
 62
     0
 10
72.3
 20
48.8819
 30
0.0
 11
69.07
 21
48.8819
 31
0.0
  0
LINE
  8
0
 62
     0
 10
69.07
 20
48.8819
 30
0.0
 11
69.07
 21
50.4074
 31
0.0
  0
LINE
  8
0
 62
     0
 10
69.07
 20
50.4074
 30
0.0
 11
73.7704
 21
50.4074
 31
0.0
  0
LINE
  8
0
 62
     0
 10
73.7704
 20
50.4074
 30
0.0
 11
73.7704
 21
64.4066
 31
0.0
  0
LINE
  8
0
 62
     0
 10
73.7704
 20
64.4066
 30
0.0
 11
69.07
 21
64.4066
 31
0.0
  0
LINE
  8
0
 62
     0
 10
69.07
 20
64.4066
 30
0.0
 11
69.07
 21
65.9324
 31
0.0
  0
LINE
  8
0
 62
     0
 10
69.07
 20
65.9324
 30
0.0
 11
72.3
 21
65.9324
 31
0.0
  0
LINE
  8
0
 62
     0
 10
72.3
 20
65.9324
 30
0.0
 11
72.3
 21
72.6817
 31
0.0
  0
LINE
  8
0
 62
     0
 10
72.3
 20
72.6817
 30
0.0
 11
69.07
 21
72.6817
 31
0.0
  0
LINE
  8
0
 62
     0
 10
69.07
 20
72.6817
 30
0.0
 11
69.07
 21
73.5072
 31
0.0
  0
LINE
  8
0
 62
     0
 10
69.07
 20
73.5072
 30
0.0
 11
66.27
 21
73.5072
 31
0.0
  0
LINE
  8
0
 62
     0
 10
2.62103
 20
73.9316
 30
0.0
 11
16.6205
 21
73.9316
 31
0.0
  0
LINE
  8
0
 62
     0
 10
16.6205
 20
73.9316
 30
0.0
 11
16.6205
 21
59.9324
 31
0.0
  0
LINE
  8
0
 62
     0
 10
16.6205
 20
59.9324
 30
0.0
 11
2.62103
 21
59.9324
 31
0.0
  0
LINE
  8
0
 62
     0
 10
2.62103
 20
59.9324
 30
0.0
 11
2.62103
 21
73.9316
 31
0.0
  0
LINE
  8
0
 62
     0
 10
21.671
 20
73.9316
 30
0.0
 11
35.6704
 21
73.9316
 31
0.0
  0
LINE
  8
0
 62
     0
 10
35.6704
 20
73.9316
 30
0.0
 11
35.6704
 21
59.9324
 31
0.0
  0
LINE
  8
0
 62
     0
 10
35.6704
 20
59.9324
 30
0.0
 11
21.671
 21
59.9324
 31
0.0
  0
LINE
  8
0
 62
     0
 10
21.671
 20
59.9324
 30
0.0
 11
21.671
 21
73.9316
 31
0.0
  0
LINE
  8
0
 62
     0
 10
40.7211
 20
73.9316
 30
0.0
 11
54.7204
 21
73.9316
 31
0.0
  0
LINE
  8
0
 62
     0
 10
54.7204
 20
73.9316
 30
0.0
 11
54.7204
 21
59.9324
 31
0.0
  0
LINE
  8
0
 62
     0
 10
54.7204
 20
59.9324
 30
0.0
 11
40.7211
 21
59.9324
 31
0.0
  0
LINE
  8
0
 62
     0
 10
40.7211
 20
59.9324
 30
0.0
 11
40.7211
 21
73.9316
 31
0.0
  0
LINE
  8
0
 62
     0
 10
2.62103
 20
92.9816
 30
0.0
 11
16.6205
 21
92.9816
 31
0.0
  0
LINE
  8
0
 62
     0
 10
16.6205
 20
92.9816
 30
0.0
 11
16.6205
 21
78.9824
 31
0.0
  0
LINE
  8
0
 62
     0
 10
16.6205
 20
78.9824
 30
0.0
 11
2.62103
 21
78.9824
 31
0.0
  0
LINE
  8
0
 62
     0
 10
2.62103
 20
78.9824
 30
0.0
 11
2.62103
 21
92.9816
 31
0.0
  0
LINE
  8
0
 62
     0
 10
21.671
 20
92.9816
 30
0.0
 11
35.6704
 21
92.9816
 31
0.0
  0
LINE
  8
0
 62
     0
 10
35.6704
 20
92.9816
 30
0.0
 11
35.6704
 21
78.9824
 31
0.0
  0
LINE
  8
0
 62
     0
 10
35.6704
 20
78.9824
 30
0.0
 11
21.671
 21
78.9824
 31
0.0
  0
LINE
  8
0
 62
     0
 10
21.671
 20
78.9824
 30
0.0
 11
21.671
 21
92.9816
 31
0.0
  0
LINE
  8
0
 62
     0
 10
40.7211
 20
92.9816
 30
0.0
 11
54.7204
 21
92.9816
 31
0.0
  0
LINE
  8
0
 62
     0
 10
54.7204
 20
92.9816
 30
0.0
 11
54.7204
 21
78.9824
 31
0.0
  0
LINE
  8
0
 62
     0
 10
54.7204
 20
78.9824
 30
0.0
 11
40.7211
 21
78.9824
 31
0.0
  0
LINE
  8
0
 62
     0
 10
40.7211
 20
78.9824
 30
0.0
 11
40.7211
 21
92.9816
 31
0.0
  0
LINE
  8
0
 62
     0
 10
59.7711
 20
92.9816
 30
0.0
 11
73.7704
 21
92.9816
 31
0.0
  0
LINE
  8
0
 62
     0
 10
73.7704
 20
92.9816
 30
0.0
 11
73.7704
 21
78.9824
 31
0.0
  0
LINE
  8
0
 62
     0
 10
73.7704
 20
78.9824
 30
0.0
 11
59.7711
 21
78.9824
 31
0.0
  0
LINE
  8
0
 62
     0
 10
59.7711
 20
78.9824
 30
0.0
 11
59.7711
 21
92.9816
 31
0.0
  0
ENDSEC
  0
EOF
